# xmcd
#
# Track frame offsets: 
#        182
#        20677
#        37832
#        55057
#        69860
#        90180
#        106325
#        128725
#        151015
#        168202
#
# Disc length: 2520 seconds
#
# Revision: 35
# Processed by: cddbd v1.5.2PL0 Copyright (c) Steve Scherf et al.
# Submitted via: ExactAudioCopy v1.0b4
#
DISCID=6509d60a
DTITLE=K.D. Lang - Ingenue
DYEAR=1992
DGENRE=Crossover
TTITLE0=Save Me
TTITLE1=The Mind Of Love
TTITLE2=Miss Chatelaine
TTITLE3=Wash Me Clean
TTITLE4=So It Shall Be
TTITLE5=Still Thrives This Love
TTITLE6=Season Of Hollow Soul
TTITLE7=Outside Myself
TTITLE8=Tears Of Love's Recall
TTITLE9=Constant Craving
EXTD=YEAR: 1992
EXTT0=
EXTT1=
EXTT2=
EXTT3=
EXTT4=
EXTT5=
EXTT6=
EXTT7=
EXTT8=
EXTT9=
PLAYORDER=
